<svg width="40" height="40" viewBox="0 0 40 40" fill="none" xmlns="http://www.w3.org/2000/svg">
<rect x="1" y="1" width="38" height="38" rx="19" fill="white"/>
<rect x="1" y="1" width="38" height="38" rx="19" stroke="#462C05" stroke-width="2"/>
<path d="M27.8 29.3126L10.8 12.3126C10.6167 12.1293 10.525 11.8959 10.525 11.6126C10.525 11.3293 10.6167 11.0959 10.8 10.9126C10.9833 10.7293 11.2167 10.6376 11.5 10.6376C11.7833 10.6376 12.0167 10.7293 12.2 10.9126L29.2 27.9126C29.3833 28.0959 29.475 28.3293 29.475 28.6126C29.475 28.8959 29.3833 29.1293 29.2 29.3126C29.0167 29.4959 28.7833 29.5876 28.5 29.5876C28.2167 29.5876 27.9833 29.4959 27.8 29.3126ZM22.7 18.5626L20.7 16.5626V12.4126C20.7 11.8626 20.896 11.3916 21.288 10.9996C21.6793 10.6083 22.15 10.4126 22.7 10.4126H24.7C25.25 10.4126 25.721 10.6083 26.113 10.9996C26.5043 11.3916 26.7 11.8626 26.7 12.4126C26.7 12.9626 26.5043 13.4333 26.113 13.8246C25.721 14.2166 25.25 14.4126 24.7 14.4126H22.7V18.5626ZM18.7 28.4126C17.6 28.4126 16.6583 28.0209 15.875 27.2376C15.0917 26.4543 14.7 25.5126 14.7 24.4126C14.7 23.3126 15.0917 22.3709 15.875 21.5876C16.6583 20.8043 17.6 20.4126 18.7 20.4126C19.0833 20.4126 19.4373 20.4583 19.762 20.5496C20.0873 20.6416 20.4 20.7793 20.7 20.9626V19.4126L22.7 21.4126V24.4126C22.7 25.5126 22.3083 26.4543 21.525 27.2376C20.7417 28.0209 19.8 28.4126 18.7 28.4126Z" fill="#462C05"/>
</svg>
