<svg width="40" height="40" viewBox="0 0 40 40" fill="none" xmlns="http://www.w3.org/2000/svg">
<rect x="1" y="1" width="38" height="38" rx="19" fill="white"/>
<rect x="1" y="1" width="38" height="38" rx="19" stroke="#462C05" stroke-width="2"/>
<path d="M18 29C16.9 29 15.9583 28.6083 15.175 27.825C14.3917 27.0417 14 26.1 14 25C14 23.9 14.3917 22.9583 15.175 22.175C15.9583 21.3917 16.9 21 18 21C18.3833 21 18.7373 21.0457 19.062 21.137C19.3873 21.229 19.7 21.3667 20 21.55V13C20 12.45 20.196 11.979 20.588 11.587C20.9793 11.1957 21.45 11 22 11H24C24.55 11 25.021 11.1957 25.413 11.587C25.8043 11.979 26 12.45 26 13C26 13.55 25.8043 14.0207 25.413 14.412C25.021 14.804 24.55 15 24 15H22V25C22 26.1 21.6083 27.0417 20.825 27.825C20.0417 28.6083 19.1 29 18 29Z" fill="#462C05"/>
</svg>
